<mxfile host="Electron" modified="2023-06-15T13:44:40.313Z" agent="Mozilla/5.0 (Windows NT 10.0; Win64; x64) AppleWebKit/537.36 (KHTML, like Gecko) draw.io/21.4.0 Chrome/112.0.5615.204 Electron/24.5.1 Safari/537.36" etag="l4XqDhmuTLU0jxWOG7tU" version="21.4.0" type="device">
  <diagram name="Page-1" id="7UbdBPYj06zFRQypQjeq">
    <mxGraphModel dx="980" dy="566" grid="1" gridSize="10" guides="1" tooltips="1" connect="1" arrows="1" fold="1" page="1" pageScale="1" pageWidth="827" pageHeight="1169" math="0" shadow="0">
      <root>
        <mxCell id="0" />
        <mxCell id="1" parent="0" />
        <mxCell id="cWM_jyLKO7VtjgLYWEU0-72" value="" style="group;movable=0;resizable=0;rotatable=0;deletable=0;editable=0;locked=1;connectable=0;" parent="1" vertex="1" connectable="0">
          <mxGeometry x="350" y="219" width="582" height="274" as="geometry" />
        </mxCell>
        <mxCell id="cWM_jyLKO7VtjgLYWEU0-9" value="" style="group" parent="cWM_jyLKO7VtjgLYWEU0-72" vertex="1" connectable="0">
          <mxGeometry width="105" height="100" as="geometry" />
        </mxCell>
        <mxCell id="cWM_jyLKO7VtjgLYWEU0-7" value="" style="verticalLabelPosition=bottom;verticalAlign=top;html=1;shape=mxgraph.basic.cone2;dx=0.5;dy=0.74;rotation=90;fillColor=#f5f5f5;fontColor=#333333;strokeColor=#666666;" parent="cWM_jyLKO7VtjgLYWEU0-9" vertex="1">
          <mxGeometry x="-5" y="10" width="90" height="80" as="geometry" />
        </mxCell>
        <mxCell id="cWM_jyLKO7VtjgLYWEU0-2" value="" style="verticalLabelPosition=bottom;verticalAlign=top;html=1;shape=mxgraph.basic.partConcEllipse;startAngle=0.6184630642608102;endAngle=0.875;arcWidth=0.18;fillColor=#f5f5f5;fontColor=#333333;strokeColor=#666666;" parent="cWM_jyLKO7VtjgLYWEU0-9" vertex="1">
          <mxGeometry x="5" width="100" height="100" as="geometry" />
        </mxCell>
        <mxCell id="cWM_jyLKO7VtjgLYWEU0-3" value="" style="verticalLabelPosition=bottom;verticalAlign=top;html=1;shape=mxgraph.basic.partConcEllipse;startAngle=0.616948397779773;endAngle=0.8770145119418312;arcWidth=0.18;fillColor=#f5f5f5;fontColor=#333333;strokeColor=#666666;" parent="cWM_jyLKO7VtjgLYWEU0-9" vertex="1">
          <mxGeometry x="20" y="15" width="70" height="70" as="geometry" />
        </mxCell>
        <mxCell id="cWM_jyLKO7VtjgLYWEU0-4" value="" style="verticalLabelPosition=bottom;verticalAlign=top;html=1;shape=mxgraph.basic.partConcEllipse;startAngle=0.6149403202663407;endAngle=0.8812791719753924;arcWidth=0.18;fillColor=#f5f5f5;fontColor=#333333;strokeColor=#666666;" parent="cWM_jyLKO7VtjgLYWEU0-9" vertex="1">
          <mxGeometry x="30" y="25" width="50" height="50" as="geometry" />
        </mxCell>
        <mxCell id="cWM_jyLKO7VtjgLYWEU0-6" value="" style="verticalLabelPosition=bottom;verticalAlign=top;html=1;shape=mxgraph.basic.cone2;dx=0.5;dy=0.67;rotation=90;fillColor=#f5f5f5;fontColor=#333333;strokeColor=#666666;" parent="cWM_jyLKO7VtjgLYWEU0-9" vertex="1">
          <mxGeometry x="40.5" y="35" width="25" height="30" as="geometry" />
        </mxCell>
        <mxCell id="cWM_jyLKO7VtjgLYWEU0-10" value="" style="group;rotation=-180;" parent="cWM_jyLKO7VtjgLYWEU0-72" vertex="1" connectable="0">
          <mxGeometry x="477" width="105" height="100" as="geometry" />
        </mxCell>
        <mxCell id="cWM_jyLKO7VtjgLYWEU0-11" value="" style="verticalLabelPosition=bottom;verticalAlign=top;html=1;shape=mxgraph.basic.cone2;dx=0.5;dy=0.74;rotation=-90;fillColor=#f5f5f5;fontColor=#333333;strokeColor=#666666;" parent="cWM_jyLKO7VtjgLYWEU0-10" vertex="1">
          <mxGeometry x="20" y="10" width="90" height="80" as="geometry" />
        </mxCell>
        <mxCell id="cWM_jyLKO7VtjgLYWEU0-12" value="" style="verticalLabelPosition=bottom;verticalAlign=top;html=1;shape=mxgraph.basic.partConcEllipse;startAngle=0.6184630642608102;endAngle=0.875;arcWidth=0.18;fillColor=#f5f5f5;fontColor=#333333;strokeColor=#666666;rotation=-180;" parent="cWM_jyLKO7VtjgLYWEU0-10" vertex="1">
          <mxGeometry width="100" height="100" as="geometry" />
        </mxCell>
        <mxCell id="cWM_jyLKO7VtjgLYWEU0-13" value="" style="verticalLabelPosition=bottom;verticalAlign=top;html=1;shape=mxgraph.basic.partConcEllipse;startAngle=0.616948397779773;endAngle=0.8770145119418312;arcWidth=0.18;fillColor=#f5f5f5;fontColor=#333333;strokeColor=#666666;rotation=-180;" parent="cWM_jyLKO7VtjgLYWEU0-10" vertex="1">
          <mxGeometry x="15" y="15" width="70" height="70" as="geometry" />
        </mxCell>
        <mxCell id="cWM_jyLKO7VtjgLYWEU0-14" value="" style="verticalLabelPosition=bottom;verticalAlign=top;html=1;shape=mxgraph.basic.partConcEllipse;startAngle=0.6149403202663407;endAngle=0.8812791719753924;arcWidth=0.18;fillColor=#f5f5f5;fontColor=#333333;strokeColor=#666666;rotation=-180;" parent="cWM_jyLKO7VtjgLYWEU0-10" vertex="1">
          <mxGeometry x="25" y="25" width="50" height="50" as="geometry" />
        </mxCell>
        <mxCell id="cWM_jyLKO7VtjgLYWEU0-15" value="" style="verticalLabelPosition=bottom;verticalAlign=top;html=1;shape=mxgraph.basic.cone2;dx=0.5;dy=0.67;rotation=-90;fillColor=#f5f5f5;fontColor=#333333;strokeColor=#666666;" parent="cWM_jyLKO7VtjgLYWEU0-10" vertex="1">
          <mxGeometry x="40" y="35" width="25" height="30" as="geometry" />
        </mxCell>
        <mxCell id="cWM_jyLKO7VtjgLYWEU0-16" value="" style="ellipse;whiteSpace=wrap;html=1;aspect=fixed;strokeColor=#7EA6E0;strokeWidth=3;" parent="cWM_jyLKO7VtjgLYWEU0-72" vertex="1">
          <mxGeometry x="145" y="55" width="80" height="80" as="geometry" />
        </mxCell>
        <mxCell id="cWM_jyLKO7VtjgLYWEU0-17" value="" style="ellipse;whiteSpace=wrap;html=1;aspect=fixed;strokeColor=#7EA6E0;strokeWidth=3;" parent="cWM_jyLKO7VtjgLYWEU0-72" vertex="1">
          <mxGeometry x="145" y="139" width="80" height="80" as="geometry" />
        </mxCell>
        <mxCell id="cWM_jyLKO7VtjgLYWEU0-24" style="edgeStyle=orthogonalEdgeStyle;shape=connector;rounded=0;orthogonalLoop=1;jettySize=auto;html=1;exitX=0;exitY=0.5;exitDx=0;exitDy=0;entryX=1;entryY=0;entryDx=0;entryDy=0;entryPerimeter=0;labelBackgroundColor=default;strokeColor=#7EA6E0;strokeWidth=3;fontFamily=Helvetica;fontSize=11;fontColor=default;endArrow=none;endFill=0;" parent="cWM_jyLKO7VtjgLYWEU0-72" target="cWM_jyLKO7VtjgLYWEU0-19" edge="1">
          <mxGeometry relative="1" as="geometry">
            <mxPoint x="310" y="21" as="sourcePoint" />
          </mxGeometry>
        </mxCell>
        <mxCell id="cWM_jyLKO7VtjgLYWEU0-19" value="" style="strokeWidth=3;html=1;shape=mxgraph.flowchart.annotation_2;align=left;labelPosition=right;pointerEvents=1;strokeColor=#7EA6E0;" parent="cWM_jyLKO7VtjgLYWEU0-72" vertex="1">
          <mxGeometry x="240" y="21" width="50" height="58" as="geometry" />
        </mxCell>
        <mxCell id="cWM_jyLKO7VtjgLYWEU0-20" style="edgeStyle=orthogonalEdgeStyle;rounded=0;orthogonalLoop=1;jettySize=auto;html=1;exitX=0;exitY=0;exitDx=45;exitDy=0;exitPerimeter=0;entryX=0;entryY=0.5;entryDx=0;entryDy=0;entryPerimeter=0;strokeColor=#7EA6E0;strokeWidth=3;endArrow=none;endFill=0;" parent="cWM_jyLKO7VtjgLYWEU0-72" source="cWM_jyLKO7VtjgLYWEU0-7" target="cWM_jyLKO7VtjgLYWEU0-19" edge="1">
          <mxGeometry relative="1" as="geometry" />
        </mxCell>
        <mxCell id="cWM_jyLKO7VtjgLYWEU0-30" style="edgeStyle=orthogonalEdgeStyle;shape=connector;rounded=0;orthogonalLoop=1;jettySize=auto;html=1;exitX=0;exitY=0.5;exitDx=0;exitDy=0;exitPerimeter=0;entryX=0;entryY=0;entryDx=45;entryDy=0;entryPerimeter=0;labelBackgroundColor=default;strokeColor=#7EA6E0;strokeWidth=3;fontFamily=Helvetica;fontSize=11;fontColor=default;endArrow=none;endFill=0;" parent="cWM_jyLKO7VtjgLYWEU0-72" source="cWM_jyLKO7VtjgLYWEU0-23" target="cWM_jyLKO7VtjgLYWEU0-11" edge="1">
          <mxGeometry relative="1" as="geometry" />
        </mxCell>
        <mxCell id="cWM_jyLKO7VtjgLYWEU0-23" value="" style="strokeWidth=3;html=1;shape=mxgraph.flowchart.annotation_2;align=left;labelPosition=right;pointerEvents=1;strokeColor=#7EA6E0;rotation=-180;" parent="cWM_jyLKO7VtjgLYWEU0-72" vertex="1">
          <mxGeometry x="440" y="21" width="50" height="58" as="geometry" />
        </mxCell>
        <mxCell id="cWM_jyLKO7VtjgLYWEU0-29" style="edgeStyle=orthogonalEdgeStyle;shape=connector;rounded=0;orthogonalLoop=1;jettySize=auto;html=1;exitX=1;exitY=1;exitDx=0;exitDy=0;exitPerimeter=0;entryX=1;entryY=0;entryDx=0;entryDy=0;entryPerimeter=0;labelBackgroundColor=default;strokeColor=#7EA6E0;strokeWidth=3;fontFamily=Helvetica;fontSize=11;fontColor=default;endArrow=none;endFill=0;" parent="cWM_jyLKO7VtjgLYWEU0-72" source="cWM_jyLKO7VtjgLYWEU0-19" target="cWM_jyLKO7VtjgLYWEU0-23" edge="1">
          <mxGeometry relative="1" as="geometry">
            <Array as="points">
              <mxPoint x="430" y="79" />
              <mxPoint x="430" y="79" />
            </Array>
          </mxGeometry>
        </mxCell>
        <mxCell id="cWM_jyLKO7VtjgLYWEU0-28" style="edgeStyle=orthogonalEdgeStyle;shape=connector;rounded=0;orthogonalLoop=1;jettySize=auto;html=1;exitX=0;exitY=0.5;exitDx=0;exitDy=0;entryX=1;entryY=0;entryDx=0;entryDy=0;entryPerimeter=0;labelBackgroundColor=default;strokeColor=#7EA6E0;strokeWidth=3;fontFamily=Helvetica;fontSize=11;fontColor=default;endArrow=none;endFill=0;" parent="cWM_jyLKO7VtjgLYWEU0-72" edge="1">
          <mxGeometry relative="1" as="geometry">
            <mxPoint x="440" y="21" as="sourcePoint" />
            <mxPoint x="420" y="21" as="targetPoint" />
          </mxGeometry>
        </mxCell>
        <mxCell id="cWM_jyLKO7VtjgLYWEU0-36" value="" style="group;fillColor=#f8cecc;strokeColor=#b85450;" parent="cWM_jyLKO7VtjgLYWEU0-72" vertex="1" connectable="0">
          <mxGeometry x="310" y="3.5" width="110" height="35" as="geometry" />
        </mxCell>
        <mxCell id="cWM_jyLKO7VtjgLYWEU0-37" value="" style="rounded=0;whiteSpace=wrap;html=1;fillColor=#e1d5e7;strokeColor=#9673a6;" parent="cWM_jyLKO7VtjgLYWEU0-36" vertex="1">
          <mxGeometry width="110" height="35" as="geometry" />
        </mxCell>
        <mxCell id="cWM_jyLKO7VtjgLYWEU0-38" value="" style="endArrow=none;html=1;rounded=0;labelBackgroundColor=default;strokeColor=#B5739D;strokeWidth=3;fontFamily=Helvetica;fontSize=11;fontColor=default;shape=connector;exitX=0;exitY=0.5;exitDx=0;exitDy=0;entryX=1;entryY=0.5;entryDx=0;entryDy=0;" parent="cWM_jyLKO7VtjgLYWEU0-36" source="cWM_jyLKO7VtjgLYWEU0-37" target="cWM_jyLKO7VtjgLYWEU0-37" edge="1">
          <mxGeometry width="50" height="50" relative="1" as="geometry">
            <mxPoint x="22.916666666666664" y="10" as="sourcePoint" />
            <mxPoint x="45.83333333333333" y="-40" as="targetPoint" />
          </mxGeometry>
        </mxCell>
        <mxCell id="cWM_jyLKO7VtjgLYWEU0-39" value="" style="rounded=0;whiteSpace=wrap;html=1;fontFamily=Helvetica;fontSize=11;fillColor=#ffe6cc;strokeColor=#d79b00;" parent="cWM_jyLKO7VtjgLYWEU0-36" vertex="1">
          <mxGeometry x="4.583333333333333" y="22.5" width="100.83333333333333" height="7.5" as="geometry" />
        </mxCell>
        <mxCell id="cWM_jyLKO7VtjgLYWEU0-40" value="" style="rounded=0;whiteSpace=wrap;html=1;fontFamily=Helvetica;fontSize=11;fillColor=#ffe6cc;strokeColor=#d79b00;" parent="cWM_jyLKO7VtjgLYWEU0-36" vertex="1">
          <mxGeometry x="4.583333333333333" y="5" width="100.83333333333333" height="7.5" as="geometry" />
        </mxCell>
        <mxCell id="cWM_jyLKO7VtjgLYWEU0-41" value="" style="rounded=0;whiteSpace=wrap;html=1;fontFamily=Helvetica;fontSize=11;fillColor=#f8cecc;strokeColor=#b85450;" parent="cWM_jyLKO7VtjgLYWEU0-72" vertex="1">
          <mxGeometry y="204" width="50" height="40" as="geometry" />
        </mxCell>
        <mxCell id="cWM_jyLKO7VtjgLYWEU0-47" value="" style="group;rotation=-180;" parent="cWM_jyLKO7VtjgLYWEU0-72" vertex="1" connectable="0">
          <mxGeometry x="477" y="174" width="105" height="100" as="geometry" />
        </mxCell>
        <mxCell id="cWM_jyLKO7VtjgLYWEU0-48" value="" style="verticalLabelPosition=bottom;verticalAlign=top;html=1;shape=mxgraph.basic.cone2;dx=0.5;dy=0.74;rotation=-90;fillColor=#f5f5f5;fontColor=#333333;strokeColor=#666666;" parent="cWM_jyLKO7VtjgLYWEU0-47" vertex="1">
          <mxGeometry x="20" y="10" width="90" height="80" as="geometry" />
        </mxCell>
        <mxCell id="cWM_jyLKO7VtjgLYWEU0-49" value="" style="verticalLabelPosition=bottom;verticalAlign=top;html=1;shape=mxgraph.basic.partConcEllipse;startAngle=0.6184630642608102;endAngle=0.875;arcWidth=0.18;fillColor=#f5f5f5;fontColor=#333333;strokeColor=#666666;rotation=-180;" parent="cWM_jyLKO7VtjgLYWEU0-47" vertex="1">
          <mxGeometry width="100" height="100" as="geometry" />
        </mxCell>
        <mxCell id="cWM_jyLKO7VtjgLYWEU0-50" value="" style="verticalLabelPosition=bottom;verticalAlign=top;html=1;shape=mxgraph.basic.partConcEllipse;startAngle=0.616948397779773;endAngle=0.8770145119418312;arcWidth=0.18;fillColor=#f5f5f5;fontColor=#333333;strokeColor=#666666;rotation=-180;" parent="cWM_jyLKO7VtjgLYWEU0-47" vertex="1">
          <mxGeometry x="15" y="15" width="70" height="70" as="geometry" />
        </mxCell>
        <mxCell id="cWM_jyLKO7VtjgLYWEU0-51" value="" style="verticalLabelPosition=bottom;verticalAlign=top;html=1;shape=mxgraph.basic.partConcEllipse;startAngle=0.6149403202663407;endAngle=0.8812791719753924;arcWidth=0.18;fillColor=#f5f5f5;fontColor=#333333;strokeColor=#666666;rotation=-180;" parent="cWM_jyLKO7VtjgLYWEU0-47" vertex="1">
          <mxGeometry x="25" y="25" width="50" height="50" as="geometry" />
        </mxCell>
        <mxCell id="cWM_jyLKO7VtjgLYWEU0-52" value="" style="verticalLabelPosition=bottom;verticalAlign=top;html=1;shape=mxgraph.basic.cone2;dx=0.5;dy=0.67;rotation=-90;fillColor=#f5f5f5;fontColor=#333333;strokeColor=#666666;" parent="cWM_jyLKO7VtjgLYWEU0-47" vertex="1">
          <mxGeometry x="40" y="35" width="25" height="30" as="geometry" />
        </mxCell>
        <mxCell id="cWM_jyLKO7VtjgLYWEU0-54" style="edgeStyle=orthogonalEdgeStyle;shape=connector;rounded=0;orthogonalLoop=1;jettySize=auto;html=1;exitX=1;exitY=0.5;exitDx=0;exitDy=0;labelBackgroundColor=default;strokeColor=#7EA6E0;strokeWidth=3;fontFamily=Helvetica;fontSize=11;fontColor=default;endArrow=none;endFill=0;" parent="cWM_jyLKO7VtjgLYWEU0-72" source="cWM_jyLKO7VtjgLYWEU0-41" target="cWM_jyLKO7VtjgLYWEU0-48" edge="1">
          <mxGeometry relative="1" as="geometry" />
        </mxCell>
        <mxCell id="cWM_jyLKO7VtjgLYWEU0-60" value="" style="rounded=0;whiteSpace=wrap;html=1;fontFamily=Helvetica;fontSize=11;fillColor=#ffe6cc;strokeColor=#d79b00;" parent="cWM_jyLKO7VtjgLYWEU0-72" vertex="1">
          <mxGeometry x="10" y="211.5" width="15" height="10" as="geometry" />
        </mxCell>
        <mxCell id="cWM_jyLKO7VtjgLYWEU0-61" value="" style="rounded=0;whiteSpace=wrap;html=1;fontFamily=Helvetica;fontSize=11;fillColor=#ffe6cc;strokeColor=#d79b00;" parent="cWM_jyLKO7VtjgLYWEU0-72" vertex="1">
          <mxGeometry x="10" y="226.5" width="15" height="10" as="geometry" />
        </mxCell>
        <mxCell id="cWM_jyLKO7VtjgLYWEU0-68" style="edgeStyle=orthogonalEdgeStyle;shape=connector;rounded=0;orthogonalLoop=1;jettySize=auto;html=1;exitX=1;exitY=0.5;exitDx=0;exitDy=0;entryX=1;entryY=0.5;entryDx=0;entryDy=0;labelBackgroundColor=default;strokeColor=#9673a6;strokeWidth=3;fontFamily=Helvetica;fontSize=11;fontColor=default;endArrow=none;endFill=0;fillColor=#e1d5e7;" parent="cWM_jyLKO7VtjgLYWEU0-72" source="cWM_jyLKO7VtjgLYWEU0-67" target="cWM_jyLKO7VtjgLYWEU0-41" edge="1">
          <mxGeometry relative="1" as="geometry" />
        </mxCell>
        <mxCell id="cWM_jyLKO7VtjgLYWEU0-69" style="edgeStyle=orthogonalEdgeStyle;shape=connector;rounded=0;orthogonalLoop=1;jettySize=auto;html=1;exitX=0;exitY=0.25;exitDx=0;exitDy=0;entryX=1;entryY=0.5;entryDx=0;entryDy=0;labelBackgroundColor=default;strokeColor=#9673a6;strokeWidth=3;fontFamily=Helvetica;fontSize=11;fontColor=default;endArrow=none;endFill=0;fillColor=#e1d5e7;" parent="cWM_jyLKO7VtjgLYWEU0-72" source="cWM_jyLKO7VtjgLYWEU0-67" target="cWM_jyLKO7VtjgLYWEU0-60" edge="1">
          <mxGeometry relative="1" as="geometry" />
        </mxCell>
        <mxCell id="cWM_jyLKO7VtjgLYWEU0-70" style="edgeStyle=orthogonalEdgeStyle;shape=connector;rounded=0;orthogonalLoop=1;jettySize=auto;html=1;exitX=0;exitY=0.75;exitDx=0;exitDy=0;entryX=1;entryY=0.5;entryDx=0;entryDy=0;labelBackgroundColor=default;strokeColor=#9673a6;strokeWidth=3;fontFamily=Helvetica;fontSize=11;fontColor=default;endArrow=none;endFill=0;fillColor=#e1d5e7;" parent="cWM_jyLKO7VtjgLYWEU0-72" source="cWM_jyLKO7VtjgLYWEU0-67" target="cWM_jyLKO7VtjgLYWEU0-61" edge="1">
          <mxGeometry relative="1" as="geometry" />
        </mxCell>
        <mxCell id="cWM_jyLKO7VtjgLYWEU0-67" value="" style="rounded=0;whiteSpace=wrap;html=1;fontFamily=Helvetica;fontSize=11;fillColor=#e1d5e7;strokeColor=#9673a6;" parent="cWM_jyLKO7VtjgLYWEU0-72" vertex="1">
          <mxGeometry x="30" y="209" width="16" height="30" as="geometry" />
        </mxCell>
        <mxCell id="cWM_jyLKO7VtjgLYWEU0-71" value="" style="endArrow=oval;html=1;rounded=0;labelBackgroundColor=default;strokeColor=#000000;strokeWidth=2;fontFamily=Helvetica;fontSize=11;fontColor=default;shape=connector;endFill=1;" parent="1" edge="1">
          <mxGeometry width="50" height="50" relative="1" as="geometry">
            <mxPoint x="600" y="370" as="sourcePoint" />
            <mxPoint x="540" y="400" as="targetPoint" />
          </mxGeometry>
        </mxCell>
        <mxCell id="cWM_jyLKO7VtjgLYWEU0-73" value="" style="endArrow=oval;html=1;rounded=0;labelBackgroundColor=default;strokeColor=#000000;strokeWidth=2;fontFamily=Helvetica;fontSize=11;fontColor=default;shape=connector;endFill=1;entryX=0.064;entryY=1.111;entryDx=0;entryDy=0;entryPerimeter=0;" parent="1" target="cWM_jyLKO7VtjgLYWEU0-39" edge="1">
          <mxGeometry width="50" height="50" relative="1" as="geometry">
            <mxPoint x="720" y="320" as="sourcePoint" />
            <mxPoint x="670" y="229" as="targetPoint" />
          </mxGeometry>
        </mxCell>
        <mxCell id="cWM_jyLKO7VtjgLYWEU0-74" value="" style="endArrow=oval;html=1;rounded=0;labelBackgroundColor=default;strokeColor=#000000;strokeWidth=2;fontFamily=Helvetica;fontSize=11;fontColor=default;shape=connector;endFill=1;" parent="1" edge="1">
          <mxGeometry width="50" height="50" relative="1" as="geometry">
            <mxPoint x="410" y="320" as="sourcePoint" />
            <mxPoint x="399" y="269" as="targetPoint" />
          </mxGeometry>
        </mxCell>
        <mxCell id="cWM_jyLKO7VtjgLYWEU0-75" value="" style="endArrow=oval;html=1;rounded=0;labelBackgroundColor=default;strokeColor=#000000;strokeWidth=2;fontFamily=Helvetica;fontSize=11;fontColor=default;shape=connector;endFill=1;" parent="1" edge="1">
          <mxGeometry width="50" height="50" relative="1" as="geometry">
            <mxPoint x="780" y="403" as="sourcePoint" />
            <mxPoint x="750" y="442" as="targetPoint" />
          </mxGeometry>
        </mxCell>
        <mxCell id="cWM_jyLKO7VtjgLYWEU0-76" value="" style="endArrow=oval;html=1;rounded=0;labelBackgroundColor=default;strokeColor=#000000;strokeWidth=2;fontFamily=Helvetica;fontSize=11;fontColor=default;shape=connector;endFill=1;" parent="1" edge="1">
          <mxGeometry width="50" height="50" relative="1" as="geometry">
            <mxPoint x="380" y="400" as="sourcePoint" />
            <mxPoint x="360" y="430" as="targetPoint" />
          </mxGeometry>
        </mxCell>
        <mxCell id="cWM_jyLKO7VtjgLYWEU0-77" value="Optical I/O" style="text;html=1;strokeColor=none;fillColor=none;align=center;verticalAlign=middle;whiteSpace=wrap;rounded=0;fontSize=22;fontFamily=UGent Panno Text;fontColor=default;" parent="1" vertex="1">
          <mxGeometry x="400" y="320" width="100" height="30" as="geometry" />
        </mxCell>
        <mxCell id="cWM_jyLKO7VtjgLYWEU0-78" value="Modulator" style="text;html=1;strokeColor=none;fillColor=none;align=center;verticalAlign=middle;whiteSpace=wrap;rounded=0;fontSize=22;fontFamily=UGent Panno Text;fontColor=default;" parent="1" vertex="1">
          <mxGeometry x="710" y="320" width="100" height="30" as="geometry" />
        </mxCell>
        <mxCell id="cWM_jyLKO7VtjgLYWEU0-79" value="Filter" style="text;html=1;strokeColor=none;fillColor=none;align=center;verticalAlign=middle;whiteSpace=wrap;rounded=0;fontSize=22;fontFamily=UGent Panno Text;fontColor=default;" parent="1" vertex="1">
          <mxGeometry x="570" y="350" width="100" height="30" as="geometry" />
        </mxCell>
        <mxCell id="cWM_jyLKO7VtjgLYWEU0-80" value="Photodetector" style="text;html=1;strokeColor=none;fillColor=none;align=center;verticalAlign=middle;whiteSpace=wrap;rounded=0;fontSize=22;fontFamily=UGent Panno Text;fontColor=default;" parent="1" vertex="1">
          <mxGeometry x="380" y="370" width="100" height="30" as="geometry" />
        </mxCell>
        <mxCell id="cWM_jyLKO7VtjgLYWEU0-81" value="Waveguide" style="text;html=1;strokeColor=none;fillColor=none;align=center;verticalAlign=middle;whiteSpace=wrap;rounded=0;fontSize=22;fontFamily=UGent Panno Text;fontColor=default;" parent="1" vertex="1">
          <mxGeometry x="770" y="380" width="100" height="30" as="geometry" />
        </mxCell>
      </root>
    </mxGraphModel>
  </diagram>
</mxfile>
